<svg width="200" height="200" viewBox="0 0 200 200" xmlns="http://www.w3.org/2000/svg">
  <!-- Bread loaf with score marks - clean transparent version -->
  <g stroke="currentColor" fill="none" stroke-width="3" stroke-linecap="round" stroke-linejoin="round">
    <!-- Main loaf shape -->
    <path d="M 30 120 Q 30 60, 100 50 Q 170 60, 170 120 Q 170 165, 100 170 Q 30 165, 30 120 Z"/>
    
    <!-- Score marks on top -->
    <path d="M 55 85 Q 60 70, 70 80"/>
    <path d="M 80 80 Q 87 65, 95 75"/>
    <path d="M 105 75 Q 113 60, 120 75"/>
    <path d="M 130 80 Q 137 65, 145 85"/>
    
    <!-- Bottom curve detail -->
    <path d="M 40 140 Q 100 155, 160 140"/>
    
    <!-- Side texture -->
    <path d="M 35 100 Q 38 95, 40 90"/>
    <path d="M 160 90 Q 162 95, 165 100"/>
  </g>
</svg>
